HIERARCHY
ROOT SpineBase
{
  OFFSET 0.000000 0.000000 0.000000
  CHANNELS 6 Xposition Yposition Zposition Zrotation Xrotation Yrotation
  JOINT SpineMid
  {
    OFFSET 0.000000 32.144787 0.000000
    CHANNELS 3 Zrotation Xrotation Yrotation
    JOINT SpineShoulder
    {
      OFFSET -0.116921 23.842341 -0.891334
      CHANNELS 3 Zrotation Xrotation Yrotation
      JOINT Neck
      {
        OFFSET -0.044997 7.868042 -0.636683
        CHANNELS 3 Zrotation Xrotation Yrotation
        JOINT Head
        {
          OFFSET -7.648354 12.393336 0.543355
          CHANNELS 3 Zrotation Xrotation Yrotation
          End Site
          {
            OFFSET 0 0 0
          }
        }
      }
      JOINT ShoulderLeft
      {
        OFFSET -11.327578 -7.081875 15.206262
        CHANNELS 3 Zrotation Xrotation Yrotation
        JOINT ElbowLeft
        {
          OFFSET -0.882218 -28.052999 1.941810
          CHANNELS 3 Zrotation Xrotation Yrotation
          JOINT WristLeft
          {
            OFFSET -3.138382 -20.166857 -7.280374
            CHANNELS 3 Zrotation Xrotation Yrotation
            JOINT HandLeft
            {
              OFFSET 3.847154 -5.842428 -7.762933
              CHANNELS 3 Zrotation Xrotation Yrotation
              JOINT HandTipLeft
              {
                OFFSET -0.419236 0.251716 -1.026787
                CHANNELS 3 Zrotation Xrotation Yrotation
                End Site
                {
                  OFFSET 0 0 0
                }
              }
              JOINT ThumbLeft
              {
                OFFSET -0.969892 -0.592203 -1.932081
                CHANNELS 3 Zrotation Xrotation Yrotation
                End Site
                {
                  OFFSET 0 0 0
                }
              }
            }
          }
        }
      }
      JOINT ShoulderRight
      {
        OFFSET 10.986665 -3.584212 -10.159484
        CHANNELS 3 Zrotation Xrotation Yrotation
        JOINT ElbowRight
        {
          OFFSET 8.198781 -21.621570 -6.151146
          CHANNELS 3 Zrotation Xrotation Yrotation
          JOINT WristRight
          {
            OFFSET -1.115930 -24.702918 -4.472477
            CHANNELS 3 Zrotation Xrotation Yrotation
            JOINT HandRight
            {
              OFFSET -2.222010 -7.276149 0.176715
              CHANNELS 3 Zrotation Xrotation Yrotation
              JOINT HandTipRight
              {
                OFFSET -0.775345 -6.756820 -0.060792
                CHANNELS 3 Zrotation Xrotation Yrotation
                End Site
                {
                  OFFSET 0 0 0
                }
              }
              JOINT ThumbRight
              {
                OFFSET -2.829610 0.643595 -0.293069
                CHANNELS 3 Zrotation Xrotation Yrotation
                End Site
                {
                  OFFSET 0 0 0
                }
              }
            }
          }
        }
      }
    }
  }
  JOINT HipLeft
  {
    OFFSET -4.800903 -0.531234 0.980840
    CHANNELS 3 Zrotation Xrotation Yrotation
    JOINT KneeLeft
    {
      OFFSET 4.661762 -35.132309 4.149061
      CHANNELS 3 Zrotation Xrotation Yrotation
      JOINT AnkleLeft
      {
        OFFSET 9.588356 -27.655476 2.470594
        CHANNELS 3 Zrotation Xrotation Yrotation
        JOINT FootLeft
        {
          OFFSET 10.396205 -4.309816 -8.322352
          CHANNELS 3 Zrotation Xrotation Yrotation
          End Site
          {
            OFFSET 0 0 0
          }
        }
      }
    }
  }
  JOINT HipRight
  {
    OFFSET 4.700333 1.816637 -8.311778
    CHANNELS 3 Zrotation Xrotation Yrotation
    JOINT KneeRight
    {
      OFFSET 10.518721 -32.715317 -0.955671
      CHANNELS 3 Zrotation Xrotation Yrotation
      JOINT AnkleRight
      {
        OFFSET 10.015319 -33.146550 4.331626
        CHANNELS 3 Zrotation Xrotation Yrotation
        JOINT FootRight
        {
          OFFSET -4.062778 -7.224853 0.329590
          CHANNELS 3 Zrotation Xrotation Yrotation
          End Site
          {
            OFFSET 0 0 0
          }
        }
      }
    }
  }
}
MOTION
Frames: 15
Frame Time: 0.033333
1.825708 72.324328 350.709709 2.403945 0.580547 38.225276 0.775024 0.351466 -38.142606 0.378574 0.079194 0.156293 -5.638372 -5.443795 -2.885529 0.000000 0.000000 0.000000 -1.356187 1.384812 -0.266386 -1.596388 37.779648 -6.005449 16.429620 -3.360252 12.126803 -131.929093 -70.731130 -161.984176 0.000000 0.000000 0.000000 0.000000 0.000000 0.000000 0.027896 -7.069749 -3.140620 -1.638941 9.228628 2.462317 0.185222 -6.317956 1.541398 -3.050026 9.921911 -1.542535 0.000000 0.000000 0.000000 0.000000 0.000000 0.000000 -1.276451 1.289844 -38.058984 -0.615856 -1.616134 -0.465157 -3.926313 -2.298201 0.410167 0.000000 0.000000 0.000000 -1.710101 2.775891 -37.667510 -0.602563 -1.390719 -0.662213 -0.814764 51.332642 -29.883925 0.000000 0.000000 0.000000
1.974192 72.407793 350.927688 3.046332 0.637329 36.814898 0.686598 0.548858 -36.727032 0.423541 0.109199 0.180591 -5.755147 -6.336628 -3.396593 0.000000 0.000000 0.000000 -1.739440 1.957409 -0.342959 1.664785 39.009408 -8.373894 -0.410873 -25.470836 16.490186 -98.229049 -70.076303 -141.371041 0.000000 0.000000 0.000000 0.000000 0.000000 0.000000 0.199049 -8.091025 -3.621096 -2.068641 10.898618 2.833039 -0.048993 -6.046598 1.313657 -1.164591 9.979943 -1.601483 0.000000 0.000000 0.000000 0.000000 0.000000 0.000000 -1.138815 1.748402 -36.536325 -1.627667 -2.661295 -0.843126 -5.123671 -1.427082 5.797108 0.000000 0.000000 0.000000 -2.059291 3.698601 -36.047326 -0.366118 -2.014625 -0.860635 8.823641 51.537000 -35.646628 0.000000 0.000000 0.000000
2.570625 72.528461 350.942126 3.914827 0.891745 34.769686 0.455226 0.693979 -34.677376 0.377229 0.104090 0.204144 -6.205915 -7.230452 -3.897132 0.000000 0.000000 0.000000 -1.978239 2.469730 -0.414674 2.357172 40.896436 -9.430364 -4.313063 -35.209193 15.913746 -65.458457 -73.471022 -108.122913 0.000000 0.000000 0.000000 0.000000 0.000000 0.000000 -0.052697 -9.066810 -3.998324 -1.685063 12.561301 2.886400 -0.895098 -5.221611 0.924382 1.262667 9.273947 -1.424003 0.000000 0.000000 0.000000 0.000000 0.000000 0.000000 -1.717734 2.057611 -34.444014 -2.758033 -3.591454 -1.276321 -7.782727 -0.702938 15.957437 0.000000 0.000000 0.000000 -2.720746 4.582907 -33.777279 0.183544 -2.601582 -0.977258 19.256099 49.647370 -40.970990 0.000000 0.000000 0.000000
3.412264 72.646128 350.824113 4.841596 1.272393 32.277132 0.139666 0.771873 -32.185932 0.266356 0.082586 0.223259 -7.171881 -8.067369 -4.380440 0.000000 0.000000 0.000000 -0.951134 1.505717 -0.315860 -4.969137 44.254110 -6.283137 2.029801 -19.012265 22.247510 -125.671829 -70.141801 -160.100465 0.000000 0.000000 0.000000 0.000000 0.000000 0.000000 -0.511616 -9.920494 -4.274166 -1.106337 14.088671 2.799982 -1.210815 -3.973618 0.426570 3.035068 7.702506 -0.903888 0.000000 0.000000 0.000000 0.000000 0.000000 0.000000 -2.613361 2.010172 -31.941342 -4.159957 -4.329984 -1.750054 -11.563265 -1.073550 30.105054 0.000000 0.000000 0.000000 -3.286807 5.363805 -31.029508 0.712845 -4.066708 -1.302293 21.098123 48.076060 -40.799480 0.000000 0.000000 0.000000
4.379348 72.761395 350.547396 5.851360 1.817624 29.899270 -0.100828 0.752801 -29.816105 0.071741 0.026196 0.243393 -9.031553 -9.181304 -5.082243 0.000000 0.000000 0.000000 -1.928626 2.988694 -0.517994 -9.870085 46.750726 -3.398384 4.712378 -5.173736 28.646362 -116.078601 -73.732489 -137.217219 0.000000 0.000000 0.000000 0.000000 0.000000 0.000000 -1.100537 -10.829741 -4.538141 -0.329345 15.714581 2.584491 -1.576336 -2.923870 -0.027667 3.109655 6.808385 -0.348175 0.000000 0.000000 0.000000 0.000000 0.000000 0.000000 -3.732599 1.545598 -29.589299 -5.973644 -4.829180 -2.253529 -14.116664 -1.549642 45.051787 0.000000 0.000000 0.000000 -3.933794 6.075107 -28.390216 1.499035 -4.497798 -1.222018 30.866374 43.619707 -44.088490 0.000000 0.000000 0.000000
5.746845 72.842849 350.020495 6.486767 2.283135 27.420758 -0.298886 0.653933 -27.349868 0.035899 0.038104 0.262689 -11.044221 -9.714058 -5.472767 0.000000 0.000000 0.000000 -2.346899 4.762109 -0.696322 -21.225770 55.712998 3.414298 9.420519 -0.499574 36.313774 -92.640460 -68.277744 -109.958372 0.000000 0.000000 0.000000 0.000000 0.000000 0.000000 -1.970479 -11.811098 -4.771936 0.754963 17.521049 2.275286 -1.760296 -1.205038 -0.753155 2.916644 5.119401 0.521924 0.000000 0.000000 0.000000 0.000000 0.000000 0.000000 -4.986119 0.694070 -27.234364 -7.677158 -4.909967 -2.649997 -14.726611 0.108438 60.289572 0.000000 0.000000 0.000000 -3.898862 6.484163 -25.680010 1.984469 -5.708897 -1.320666 36.006444 41.533126 -46.158647 0.000000 0.000000 0.000000
7.349544 72.913829 349.292397 6.866511 2.669660 25.413479 -0.401112 0.495352 -25.351878 0.020636 0.037816 0.277473 -13.420833 -9.917822 -5.753876 0.000000 0.000000 0.000000 -2.643534 6.346281 -0.847439 -42.073526 63.976543 18.961988 23.807635 1.592331 40.928869 -65.393769 -62.001489 -65.689380 0.000000 0.000000 0.000000 0.000000 0.000000 0.000000 -2.905883 -12.519215 -4.912374 2.037102 19.098990 1.825630 -2.251929 -0.039277 -1.341702 3.502552 3.420262 1.327477 0.000000 0.000000 0.000000 0.000000 0.000000 0.000000 -6.392695 -0.390559 -25.448629 -9.067350 -4.529791 -2.844889 -15.131959 -3.832368 64.522947 0.000000 0.000000 0.000000 -3.414149 6.642212 -23.506540 2.437369 -6.928067 -1.337071 36.106911 42.207849 -48.013395 0.000000 0.000000 0.000000
8.828167 72.964606 348.617828 7.100398 2.996714 23.802932 -0.431281 0.355840 -23.749918 0.024950 0.029729 0.290344 -15.536074 -9.958349 -5.920668 0.000000 0.000000 0.000000 -2.727342 8.204380 -1.006653 -66.952578 67.941602 39.226643 28.916128 18.061099 49.396168 -86.720048 -54.046724 -71.129788 0.000000 0.000000 0.000000 0.000000 0.000000 0.000000 -3.782987 -12.870530 -4.927143 3.346534 19.593722 1.337766 -2.397540 1.135080 -1.719921 3.023158 1.972211 1.868452 0.000000 0.000000 0.000000 0.000000 0.000000 0.000000 -7.708265 -1.418055 -24.094308 -9.975359 -4.135945 -2.932789 -14.697922 -5.907139 67.123920 0.000000 0.000000 0.000000 -2.650346 6.482221 -21.822436 2.745258 -7.804981 -1.220806 31.156913 45.677615 -49.469638 0.000000 0.000000 0.000000
10.826839 73.027035 347.664028 7.007384 3.214001 22.208683 -0.340766 0.288356 -22.162146 0.076636 0.046769 0.296300 -17.292992 -10.065452 -6.093949 0.000000 0.000000 0.000000 -4.713608 9.273417 -1.133648 -91.276656 68.190726 61.854633 30.122457 20.340914 57.207528 -89.569176 -47.413368 -68.111126 0.000000 0.000000 0.000000 0.000000 0.000000 0.000000 -4.707531 -13.398788 -4.953246 4.709097 20.271591 0.873297 -3.099539 2.079960 -2.124667 3.435525 1.009678 2.379073 0.000000 0.000000 0.000000 0.000000 0.000000 0.000000 -9.209260 -2.280887 -22.853921 -10.296510 -3.810150 -2.963449 -12.481881 -4.684715 64.396994 0.000000 0.000000 0.000000 -2.123358 6.105767 -20.216300 3.252704 -8.463885 -1.084993 20.867913 51.520055 -48.738696 0.000000 0.000000 0.000000
12.676035 73.019916 346.736883 6.581967 3.270946 20.261267 -0.264273 0.263138 -20.216924 0.141050 0.052022 0.288562 -18.255748 -9.901581 -6.038368 0.000000 0.000000 0.000000 -6.997242 9.353947 -1.157126 -106.318673 67.006606 77.756443 25.438847 15.414773 63.148692 -85.345692 -42.995795 -66.356020 0.000000 0.000000 0.000000 0.000000 0.000000 0.000000 -5.302796 -13.880793 -4.977451 5.709071 21.072824 0.574184 -3.445507 2.927140 -2.539264 3.792362 -0.130413 2.913652 0.000000 0.000000 0.000000 0.000000 0.000000 0.000000 -10.270229 -3.072998 -21.253795 -10.002818 -3.430659 -2.870303 -10.174734 -3.262760 57.871289 0.000000 0.000000 0.000000 -1.514267 5.816783 -18.230670 3.686940 -9.319201 -1.063801 18.870440 56.815039 -52.569361 0.000000 0.000000 0.000000
15.040864 73.065844 345.615428 5.958660 3.097078 19.407969 -0.229150 0.282154 -19.359376 0.192723 0.073594 0.267217 -18.792651 -9.795731 -6.065358 0.000000 0.000000 0.000000 -12.966865 9.422349 -1.188439 -101.900179 64.606150 78.859636 18.981646 3.557534 64.704608 -66.730141 -39.656382 -60.655474 0.000000 0.000000 0.000000 0.000000 0.000000 0.000000 -5.542115 -14.373855 -5.060145 6.263276 21.850908 0.530782 -3.798574 3.398010 -2.804807 3.879549 0.174872 3.022952 0.000000 0.000000 0.000000 0.000000 0.000000 0.000000 -11.127879 -2.760910 -20.622506 -10.124491 -4.304625 -3.326688 -8.081733 -1.913105 57.215869 0.000000 0.000000 0.000000 -0.902769 5.433263 -17.420627 3.967453 -9.586634 -1.015294 19.414241 57.983037 -54.019055 0.000000 0.000000 0.000000
17.523566 73.137231 344.481986 5.168193 2.679453 19.313859 -0.191349 0.298859 -19.253578 0.200282 0.056523 0.234914 -18.885498 -9.685842 -6.170569 0.000000 0.000000 0.000000 -16.278124 8.950943 -1.126810 -96.525213 65.040423 78.586520 13.785244 -2.818233 63.205965 -52.659743 -34.957106 -53.479035 0.000000 0.000000 0.000000 0.000000 0.000000 0.000000 -5.253350 -14.290813 -5.024848 6.413279 21.751313 0.635180 -4.148611 3.817362 -2.896819 4.869925 0.349034 3.125043 0.000000 0.000000 0.000000 0.000000 0.000000 0.000000 -11.716394 -1.609641 -20.600546 -9.917756 -5.676139 -3.961229 -6.374526 -0.385470 57.961140 0.000000 0.000000 0.000000 -0.569461 4.862473 -17.489561 4.178145 -9.149419 -0.946437 18.922030 56.028988 -51.204786 0.000000 0.000000 0.000000
20.223289 73.256658 343.312395 4.636428 2.376140 19.021950 -0.194371 0.279328 -18.955685 0.051776 -0.060648 0.199804 -19.200545 -9.892091 -6.574489 0.000000 0.000000 0.000000 -17.868621 6.982959 -1.175751 -99.381456 62.143084 82.887808 19.653518 13.635639 66.340091 -68.739857 -32.168563 -56.782030 0.000000 0.000000 0.000000 0.000000 0.000000 0.000000 -5.197849 -14.173236 -4.977952 6.649815 21.490423 0.733327 -4.177745 3.617192 -2.712594 5.904782 2.390256 2.671581 0.000000 0.000000 0.000000 0.000000 0.000000 0.000000 -12.706152 -0.417575 -20.379521 -10.088579 -7.316557 -4.836620 -4.150297 1.980760 59.763987 0.000000 0.000000 0.000000 -0.840870 4.221767 -17.408990 4.293857 -8.209231 -0.855614 16.675778 52.121067 -45.284015 0.000000 0.000000 0.000000
22.937874 73.430641 342.233924 3.950867 1.747020 19.493234 -0.194275 0.206729 -19.413907 0.045958 -0.105610 0.170179 -18.878261 -10.160817 -7.114608 0.000000 0.000000 0.000000 -17.232519 3.828759 -1.238330 -106.514855 54.783088 87.211591 48.784087 33.947716 60.398461 -84.700267 -24.086612 -42.170916 0.000000 0.000000 0.000000 0.000000 0.000000 0.000000 -4.657880 -13.702474 -4.956341 6.268402 20.480417 1.121666 -3.936522 3.567581 -2.374238 6.357350 4.537345 1.966780 0.000000 0.000000 0.000000 0.000000 0.000000 0.000000 -13.275468 1.376065 -20.747965 -9.787976 -8.576440 -5.461269 -2.824491 3.564278 62.697456 0.000000 0.000000 0.000000 -1.041568 4.037906 -18.053485 4.058399 -7.361576 -0.925170 11.836159 50.054887 -39.208681 0.000000 0.000000 0.000000
25.243785 73.603774 341.421452 3.390625 1.021794 20.290991 -0.212319 0.159975 -20.202796 0.122363 -0.067784 0.150199 -18.161902 -10.357849 -7.561568 0.000000 0.000000 0.000000 -16.497871 2.654988 -1.142275 -110.877249 51.568356 90.373189 61.120624 39.838466 55.921707 -90.296939 -20.928865 -37.676724 0.000000 0.000000 0.000000 0.000000 0.000000 0.000000 -4.156363 -13.142562 -4.942057 6.256930 19.221345 1.322096 -2.583110 4.154711 -2.079123 4.961951 4.419711 1.597962 0.000000 0.000000 0.000000 0.000000 0.000000 0.000000 -13.400808 2.952640 -21.375076 -9.642143 -9.050306 -5.702655 -2.088375 3.574515 64.397145 0.000000 0.000000 0.000000 -1.057358 4.206671 -18.963278 3.706622 -6.798276 -1.032000 9.936287 49.552451 -36.754419 0.000000 0.000000 0.000000
